<svg id="color" enable-background="new 0 0 24 24" height="512" viewBox="0 0 24 24" width="512" xmlns="http://www.w3.org/2000/svg"><path d="m24 4v4.59c-.58-.359-1.27-.57-2-.58v-2.01h-20v2h-.25c-.63 0-1.23.16-1.75.44v-4.44c0-1.65 1.35-3 3-3h18c1.65 0 3 1.35 3 3z" fill="#607d8b"/><path d="m24 17.9v2.1c0 1.65-1.35 3-3 3h-18c-1.65 0-3-1.35-3-3v-2.44c.52.28 1.12.44 1.75.44h.25v2c0 .55.45 1 1 1h18c.55 0 1-.45 1-1v-2.31h.01c.39.2.81.31 1.24.31.25 0 .5-.03.75-.1z" fill="#607d8b"/><path d="m22 6v2.01l-.12-.01h-1.13c-.6 0-1.16.2-1.61.53-.56-.33-1.2-.53-1.89-.53h-.5c-.9 0-1.72.33-2.37.87-.7-.54-1.56-.87-2.5-.87h-1.13c-.65 0-1.25.24-1.72.62-.63-.38-1.36-.62-2.15-.62h-1.13c-.45 0-.87.12-1.25.31-.38-.19-.8-.31-1.25-.31h-1.25v-2z" fill="#fff"/><path d="m22 17.69v2.31c0 .55-.45 1-1 1h-18c-.55 0-1-.45-1-1v-2h1.25c.45 0 .87-.12 1.25-.31.38.19.8.31 1.25.31s.88-.11 1.26-.31c.38.2.8.31 1.24.31s.87-.12 1.25-.31c.38.19.8.31 1.25.31s.88-.11 1.26-.31c.39.2.81.31 1.24.31.56 0 1.12-.18 1.61-.53.55.33 1.2.53 1.89.53h.5c.69 0 1.33-.2 1.89-.53.45.33 1.01.53 1.61.53.45 0 .87-.11 1.25-.31z" fill="#fff"/><path d="m12 1h-9c-1.65 0-3 1.35-3 3v4.44c.52-.28 1.12-.44 1.75-.44h.25v-2h10z" fill="#546d79"/><path d="m0 17.56v2.44c0 1.65 1.35 3 3 3h9v-2h-9c-.55 0-1-.45-1-1v-2h-.25c-.63 0-1.23-.16-1.75-.44z" fill="#546d79"/><path d="m12 6h-10v2h1.25c.45 0 .87.12 1.25.31.38-.19.8-.31 1.25-.31h1.13c.79 0 1.52.24 2.15.62.47-.38 1.07-.62 1.72-.62h1.13c.04 0 .08.001.12.002z" fill="#dedede"/><path d="m9.5 17.69c-.38.19-.81.31-1.25.31s-.86-.11-1.24-.31c-.38.2-.81.31-1.26.31s-.87-.12-1.25-.31c-.38.19-.8.31-1.25.31h-1.25v2c0 .55.45 1 1 1h9v-3.304c-.377.196-.804.304-1.25.304-.45 0-.87-.12-1.25-.31z" fill="#dedede"/><g fill="#f44336"><path d="m3.25 13.75h-2.5c-.414 0-.414-1.5 0-1.5h2.5c.414 0 .75.336.75.75s-.336.75-.75.75z"/><path d="m3.25 16h-1.5c-.965 0-1.75-.785-1.75-1.75v-2.5c0-.965.785-1.75 1.75-1.75h1.5c.414 0 .75.336.75.75s-.336.75-.75.75h-1.5c-.138 0-.25.112-.25.25v2.5c0 .138.112.25.25.25h1.5c.414 0 .75.336.75.75s-.336.75-.75.75z"/><path d="m17.25 16h-.5c-.965 0-1.75-.785-1.75-1.75v-2.5c0-.965.785-1.75 1.75-1.75h.5c.965 0 1.75.785 1.75 1.75v2.5c0 .965-.785 1.75-1.75 1.75zm-.5-4.5c-.138 0-.25.112-.25.25v2.5c0 .138.112.25.25.25h.5c.138 0 .25-.112.25-.25v-2.5c0-.138-.112-.25-.25-.25z"/><path d="m5.75 16c-.414 0-.75-.336-.75-.75v-4.5c0-.414.336-.75.75-.75h1.125c1.172 0 2.125.953 2.125 2.125s-.953 2.125-2.125 2.125h-.375v1c0 .414-.336.75-.75.75zm.75-3.25h.375c.345 0 .625-.28.625-.625s-.28-.625-.625-.625h-.375z"/><path d="m7.03 12.97 1.75 1.75c.293.293.293.768 0 1.061s-.768.293-1.061 0l-1.75-1.75c-.292-.294.915-1.208 1.061-1.061z"/><path d="m10.75 16c-.414 0-.75-.336-.75-.75v-4.5c0-.414.336-.75.75-.75h1.125c1.172 0 2.125.953 2.125 2.125s-.953 2.125-2.125 2.125h-.375v1c0 .414-.336.75-.75.75zm.75-3.25h.375c.345 0 .625-.28.625-.625s-.28-.625-.625-.625h-.375z"/><path d="m12.319 13.012 1.5 1.75c.27.314.233.788-.081 1.058-.314.269-.787.233-1.058-.081l-1.5-1.75c-.269-.315.991-1.15 1.139-.977z"/><path d="m20.75 16c-.414 0-.75-.336-.75-.75v-4.5c0-.414.336-.75.75-.75h1.125c1.172 0 2.125.953 2.125 2.125s-.953 2.125-2.125 2.125h-.375v1c0 .414-.336.75-.75.75zm.75-3.25h.375c.345 0 .625-.28.625-.625s-.28-.625-.625-.625h-.375z"/><path d="m22.319 13.012 1.5 1.75c.27.314.233.788-.081 1.058-.314.269-.788.233-1.058-.081l-1.5-1.75c-.269-.315.991-1.15 1.139-.977z"/></g><path d="m3.999 12.954h-2.499v.796h1.75c.414 0 .75-.336.75-.75 0-.015 0-.031-.001-.046z" fill="#d43a2f"/><path d="m1.5 12.954h-1.5v1.296c0 .965.785 1.75 1.75 1.75h1.5c.414 0 .75-.336.75-.75s-.336-.75-.75-.75h-1.5c-.138 0-.25-.112-.25-.25v-.5z" fill="#d43a2f"/><path d="m19 12.954h-1.5v1.296c0 .138-.112.25-.25.25h-.5c-.138 0-.25-.112-.25-.25v-1.296h-1.5v1.296c0 .965.785 1.75 1.75 1.75h.5c.965 0 1.75-.785 1.75-1.75z" fill="#d43a2f"/><path d="m6.976 12.954h-1.976v2.296c0 .414.336.75.75.75s.75-.336.75-.75v-.689l-.53-.53c-.27-.27.73-1.066 1.006-1.077zm1.856 0h-1.844c.018.001.032.006.042.016l.962.962c.372-.23.667-.572.84-.978z" fill="#d43a2f"/><path d="m6.988 12.954h-.012c-.276.011-1.276.807-1.006 1.076l.53.53 1.22 1.22c.146.147.338.22.53.22s.384-.073.53-.22c.293-.293.293-.768 0-1.061l-.788-.788-.962-.961c-.01-.01-.024-.015-.042-.016z" fill="#d43a2f"/><path d="m13.832 12.954h-3.832v2.296c0 .414.336.75.75.75s.75-.336.75-.75v-.889l-.319-.373c-.245-.285.771-1 1.071-1 .031 0 .054.007.067.023l.747.872c.337-.228.605-.55.766-.929z" fill="#d43a2f"/><path d="m12.252 12.988c-.3 0-1.316.714-1.071 1l.319.373 1.181 1.377c.148.173.358.262.569.262.173 0 .347-.059.488-.18.314-.27.351-.743.081-1.058l-.753-.878-.747-.872c-.013-.016-.036-.024-.067-.024z" fill="#d43a2f"/><path d="m23.832 12.954h-3.832v2.296c0 .414.336.75.75.75s.75-.336.75-.75v-.889l-.319-.373c-.245-.285.771-1 1.071-1 .031 0 .054.007.067.023l.747.872c.337-.228.605-.55.766-.929z" fill="#d43a2f"/><path d="m22.252 12.988c-.3 0-1.316.714-1.071 1l.319.373 1.181 1.377c.148.173.358.262.569.262.173 0 .347-.059.488-.18.171-.147.26-.354.262-.563v-.012c-.001-.171-.061-.342-.181-.482l-.753-.878-.747-.872c-.013-.017-.036-.025-.067-.025z" fill="#d43a2f"/></svg>